# xmcd
#
# Track frame offsets: 
#        150
#        17039
#        30445
#        47331
#        63768
#        79216
#        93431
#        107356
#        121876
#        138545
#        154452
#        167808
#        182406
#        198477
#
# Disc length: 2823 seconds
#
# Revision: 0
# Processed by: cddbd v1.5.2PL0 Copyright (c) Steve Scherf et al.
# Submitted via: ExactAudioCopy v1.1
#
DISCID=ab0b050e
DTITLE=Bart Kaëll - In 't Nieuw
DYEAR=2017
DGENRE=Chanson
TTITLE0=C'Est Si Bon
TTITLE1=Ik Kan Het Niet Geloven
TTITLE2=Het Is Feest
TTITLE3=Zeg Hallo
TTITLE4=Op Mijn Fiets
TTITLE5=Te Mooi Voor Mij
TTITLE6=Hoog Boven De Bergen
TTITLE7=We Doen Het Morgen Wel
TTITLE8=Lichaamstaal
TTITLE9=Peizde Nog Aan Mij?
TTITLE10=Ik Kan Het Niet Geloven (Akoestisch)
TTITLE11=Op Mijn Fiets (Akoestisch)
TTITLE12=Peizde Nog Aan Mij? (Akoestisch)
TTITLE13=De Marie-Louise (Akoestisch)
EXTD=
EXTT0=
EXTT1=
EXTT2=
EXTT3=
EXTT4=
EXTT5=
EXTT6=
EXTT7=
EXTT8=
EXTT9=
EXTT10=
EXTT11=
EXTT12=
EXTT13=
PLAYORDER=
